<svg width="1000" height="395" viewBox="0 0 1000 395" xmlns="http://www.w3.org/2000/svg"><defs><pattern id="satori_pattern_id_0" x="0" y="0" width="1" height="1" patternUnits="objectBoundingBox"><linearGradient id="satori_biid_0" x1="0" y1="0" x2="0" y2="1"><stop offset="0%" stop-color="#dbf4ff"/><stop offset="100%" stop-color="#fff1f1"/></linearGradient><rect x="0" y="0" width="1000" height="395" fill="url(#satori_biid_0)"/></pattern></defs><rect x="0" y="0" width="1000" height="395" fill="url(#satori_pattern_id_0)"/><clipPath id="satori_bct-id-0"><path d="M413.3 121.5L402.3 155.2L392.4 155.2L407.5 111.5L419.4 111.5L434.4 155.2L424.5 155.2L413.6 121.5L413.3 121.5ZM401.7 145.2L401.7 138.0L425.0 138.0L425.0 145.2L401.7 145.2Z M438.0 133.6L457.9 133.6L457.9 140.8L438.0 140.8L438.0 133.6Z M493.3 155.2L463.8 155.2L463.8 111.5L493.2 111.5L493.2 119.1L473.0 119.1L473.0 129.5L491.7 129.5L491.7 137.1L473.0 137.1L473.0 147.6L493.3 147.6L493.3 155.2ZM507.5 155.2L498.4 155.2L498.4 122.4L507.0 122.4L507.0 128.2L507.4 128.2Q508.4 125.3 510.8 123.7Q513.2 122.0 516.5 122.0L516.5 122.0Q519.9 122.0 522.3 123.7Q524.6 125.4 525.4 128.2L525.4 128.2L525.8 128.2Q526.8 125.4 529.4 123.7Q532.0 122.0 535.6 122.0L535.6 122.0Q540.2 122.0 543.1 124.9Q545.9 127.8 545.9 133.2L545.9 133.2L545.9 155.2L536.9 155.2L536.9 134.9Q536.9 132.2 535.4 130.8Q534.0 129.5 531.8 129.5L531.8 129.5Q529.3 129.5 527.9 131.1Q526.6 132.6 526.6 135.2L526.6 135.2L526.6 155.2L517.8 155.2L517.8 134.7Q517.8 132.3 516.4 130.9Q515.0 129.5 512.8 129.5L512.8 129.5Q511.3 129.5 510.1 130.2Q508.9 131.0 508.2 132.4Q507.5 133.7 507.5 135.5L507.5 135.5L507.5 155.2ZM560.2 155.2L551.1 155.2L551.1 122.4L560.2 122.4L560.2 155.2ZM555.6 118.2L555.6 118.2Q553.6 118.2 552.2 116.9Q550.7 115.5 550.7 113.6L550.7 113.6Q550.7 111.7 552.2 110.4Q553.6 109.0 555.6 109.0L555.6 109.0Q557.7 109.0 559.1 110.4Q560.5 111.7 560.5 113.6L560.5 113.6Q560.5 115.5 559.1 116.9Q557.7 118.2 555.6 118.2ZM565.4 111.5L574.5 111.5L574.5 155.2L565.4 155.2L565.4 111.5ZM594.6 155.8L594.6 155.8Q589.6 155.8 586.0 153.7Q582.3 151.7 580.4 147.9Q578.4 144.1 578.4 138.9L578.4 138.9Q578.4 133.9 580.4 130.1Q582.3 126.3 585.9 124.1Q589.5 122.0 594.3 122.0L594.3 122.0Q597.5 122.0 600.3 123.0Q603.1 124.1 605.2 126.1Q607.3 128.2 608.5 131.3Q609.7 134.5 609.7 138.6L609.7 138.6L609.7 141.1L582.0 141.1L582.0 135.5L601.1 135.5Q601.1 133.5 600.3 132.0Q599.4 130.5 597.9 129.6Q596.4 128.8 594.4 128.8L594.4 128.8Q592.4 128.8 590.8 129.7Q589.2 130.7 588.3 132.3Q587.4 133.9 587.4 135.8L587.4 135.8L587.4 141.1Q587.4 143.6 588.3 145.3Q589.2 147.1 590.9 148.1Q592.5 149.0 594.8 149.0L594.8 149.0Q596.3 149.0 597.6 148.6Q598.8 148.2 599.7 147.3Q600.6 146.5 601.1 145.2L601.1 145.2L609.5 145.8Q608.8 148.8 606.9 151.1Q604.9 153.3 601.8 154.6Q598.7 155.8 594.6 155.8Z "/></clipPath><defs><pattern id="satori_pattern_id-0_0" x="0" y="0" width="1" height="1" patternUnits="objectBoundingBox"><linearGradient id="satori_biid-0_0" x1="0" y1="0" x2="1" y2="0"><stop offset="0%" stop-color="rgb(0,124,240)"/><stop offset="100%" stop-color="rgb(0,223,216)"/></linearGradient><rect x="0" y="0" width="298" height="82" fill="url(#satori_biid-0_0)"/></pattern></defs><rect x="351" y="94" width="298" height="82" fill="url(#satori_pattern_id-0_0)" clip-path="url(#satori_bct-id-0)"/><clipPath id="satori_bct-id-1"><path d="M452.5 209.1L447.9 209.1L447.9 187.3L456.5 187.3Q459.0 187.3 460.7 188.2Q462.5 189.1 463.4 190.8Q464.3 192.5 464.3 194.7L464.3 194.7Q464.3 196.8 463.4 198.5Q462.4 200.2 460.7 201.1Q458.9 202.0 456.4 202.0L456.4 202.0L450.9 202.0L450.9 198.3L455.6 198.3Q457.0 198.3 457.8 197.8Q458.7 197.4 459.1 196.6Q459.6 195.7 459.6 194.7L459.6 194.7Q459.6 193.6 459.1 192.8Q458.7 191.9 457.8 191.5Q457.0 191.0 455.6 191.0L455.6 191.0L452.5 191.0L452.5 209.1ZM472.4 209.4L472.4 209.4Q469.9 209.4 468.1 208.3Q466.3 207.3 465.3 205.4Q464.3 203.5 464.3 201.0L464.3 201.0Q464.3 198.4 465.3 196.5Q466.3 194.6 468.1 193.6Q469.9 192.5 472.4 192.5L472.4 192.5Q474.8 192.5 476.6 193.6Q478.5 194.6 479.4 196.5Q480.4 198.4 480.4 201.0L480.4 201.0Q480.4 203.5 479.4 205.4Q478.5 207.3 476.6 208.3Q474.8 209.4 472.4 209.4ZM472.4 205.9L472.4 205.9Q473.5 205.9 474.3 205.2Q475.0 204.6 475.4 203.5Q475.8 202.4 475.8 200.9L475.8 200.9Q475.8 199.5 475.4 198.4Q475.0 197.3 474.3 196.6Q473.5 196.0 472.4 196.0L472.4 196.0Q471.2 196.0 470.5 196.6Q469.7 197.3 469.3 198.4Q468.9 199.5 468.9 200.9L468.9 200.9Q468.9 202.4 469.3 203.5Q469.7 204.6 470.5 205.2Q471.2 205.9 472.4 205.9ZM485.9 209.1L481.4 209.1L481.4 192.7L485.8 192.7L485.8 195.6L485.9 195.6Q486.4 194.0 487.4 193.3Q488.5 192.5 489.9 192.5L489.9 192.5Q490.2 192.5 490.6 192.5Q491.0 192.6 491.3 192.6L491.3 192.6L491.3 196.7Q491.0 196.6 490.4 196.5Q489.9 196.4 489.4 196.4L489.4 196.4Q488.4 196.4 487.6 196.9Q486.8 197.3 486.4 198.1Q485.9 198.8 485.9 199.8L485.9 199.8L485.9 209.1ZM491.3 192.7L501.2 192.7L501.2 196.1L491.3 196.1L491.3 192.7ZM493.5 204.6L493.5 188.8L498.1 188.8L498.1 204.1Q498.1 204.7 498.3 205.0Q498.5 205.4 498.8 205.5Q499.2 205.6 499.6 205.6L499.6 205.6Q499.9 205.6 500.3 205.6Q500.6 205.5 500.7 205.5L500.7 205.5L501.5 208.9Q501.1 209.0 500.5 209.1Q499.9 209.3 499.0 209.3L499.0 209.3Q497.4 209.4 496.1 208.9Q494.9 208.4 494.2 207.3Q493.5 206.3 493.5 204.6L493.5 204.6ZM500.8 192.7L510.9 192.7L510.9 196.1L500.8 196.1L500.8 192.7ZM507.7 209.1L503.1 209.1L503.1 191.5Q503.1 189.8 503.8 188.6Q504.5 187.4 505.7 186.8Q506.9 186.2 508.5 186.2L508.5 186.2Q509.5 186.2 510.4 186.4Q511.3 186.6 511.7 186.7L511.7 186.7L510.9 190.1Q510.6 190.0 510.2 189.9Q509.8 189.9 509.4 189.9L509.4 189.9Q508.4 189.9 508.0 190.3Q507.7 190.8 507.7 191.6L507.7 191.6L507.7 209.1ZM518.5 209.4L518.5 209.4Q516.0 209.4 514.2 208.3Q512.4 207.3 511.4 205.4Q510.4 203.5 510.4 201.0L510.4 201.0Q510.4 198.4 511.4 196.5Q512.4 194.6 514.2 193.6Q516.0 192.5 518.5 192.5L518.5 192.5Q521.0 192.5 522.8 193.6Q524.6 194.6 525.6 196.5Q526.6 198.4 526.6 201.0L526.6 201.0Q526.6 203.5 525.6 205.4Q524.6 207.3 522.8 208.3Q521.0 209.4 518.5 209.4ZM518.5 205.9L518.5 205.9Q519.7 205.9 520.4 205.2Q521.2 204.6 521.6 203.5Q521.9 202.4 521.9 200.9L521.9 200.9Q521.9 199.5 521.6 198.4Q521.2 197.3 520.4 196.6Q519.7 196.0 518.5 196.0L518.5 196.0Q517.4 196.0 516.6 196.6Q515.8 197.3 515.4 198.4Q515.1 199.5 515.1 200.9L515.1 200.9Q515.1 202.4 515.4 203.5Q515.8 204.6 516.6 205.2Q517.4 205.9 518.5 205.9ZM527.5 187.3L532.1 187.3L532.1 209.1L527.5 209.1L527.5 187.3ZM538.2 209.1L533.7 209.1L533.7 192.7L538.2 192.7L538.2 209.1ZM536.0 190.6L536.0 190.6Q534.9 190.6 534.2 189.9Q533.5 189.3 533.5 188.3L533.5 188.3Q533.5 187.4 534.2 186.7Q534.9 186.0 536.0 186.0L536.0 186.0Q537.0 186.0 537.7 186.7Q538.4 187.4 538.4 188.3L538.4 188.3Q538.4 189.3 537.7 189.9Q537.0 190.6 536.0 190.6ZM547.2 209.4L547.2 209.4Q544.7 209.4 542.9 208.3Q541.1 207.3 540.2 205.4Q539.2 203.5 539.2 201.0L539.2 201.0Q539.2 198.4 540.2 196.5Q541.1 194.6 542.9 193.6Q544.7 192.5 547.2 192.5L547.2 192.5Q549.7 192.5 551.5 193.6Q553.3 194.6 554.3 196.5Q555.3 198.4 555.3 201.0L555.3 201.0Q555.3 203.5 554.3 205.4Q553.3 207.3 551.5 208.3Q549.7 209.4 547.2 209.4ZM547.3 205.9L547.3 205.9Q548.4 205.9 549.1 205.2Q549.9 204.6 550.3 203.5Q550.7 202.4 550.7 200.9L550.7 200.9Q550.7 199.5 550.3 198.4Q549.9 197.3 549.1 196.6Q548.4 196.0 547.3 196.0L547.3 196.0Q546.1 196.0 545.3 196.6Q544.6 197.3 544.2 198.4Q543.8 199.5 543.8 200.9L543.8 200.9Q543.8 202.4 544.2 203.5Q544.6 204.6 545.3 205.2Q546.1 205.9 547.3 205.9Z "/></clipPath><defs><pattern id="satori_pattern_id-1_0" x="0" y="0" width="1" height="1" patternUnits="objectBoundingBox"><linearGradient id="satori_biid-1_0" x1="0" y1="0" x2="1" y2="0"><stop offset="0%" stop-color="rgb(121,40,202)"/><stop offset="100%" stop-color="rgb(255,0,128)"/></linearGradient><rect x="0" y="0" width="188" height="47" fill="url(#satori_biid-1_0)"/></pattern></defs><rect x="406" y="176" width="188" height="47" fill="url(#satori_pattern_id-1_0)" clip-path="url(#satori_bct-id-1)"/><defs><clipPath id="satori_bc-id-2"><path x="388" y="233" width="224" height="68" d="M408,233 h184 a20,20 0 0 1 20,20 v28 a20,20 0 0 1 -20,20 h-184 a20,20 0 0 1 -20,-20 v-28 a20,20 0 0 1 20,-20"/></clipPath></defs><path x="388" y="233" width="224" height="68" fill="#dbf4ff" d="M408,233 h184 a20,20 0 0 1 20,20 v28 a20,20 0 0 1 -20,20 h-184 a20,20 0 0 1 -20,-20 v-28 a20,20 0 0 1 20,-20"/><path width="224" height="68" clip-path="url(#satori_bc-id-2)" fill="none" stroke="rgb(0, 223, 216)" stroke-width="10" d="M393.858,238.858 A20,20 0 0 1 408,233 h184 a20,20 0 0 1 20,20 v28 a20,20 0 0 1 -20,20 h-184 a20,20 0 0 1 -20,-20 v-28 A20,20 0 0 1 393.858,238.858"/><path fill="rgb(0, 223, 216)" d="M455.2 280.4L435.5 280.4L435.5 251.3L455.1 251.3L455.1 256.4L441.7 256.4L441.7 263.4L454.1 263.4L454.1 268.4L441.7 268.4L441.7 275.4L455.2 275.4L455.2 280.4ZM456.7 258.6L463.0 258.6L467.0 266.2L471.1 258.6L477.3 258.6L471.0 269.5L477.5 280.4L471.3 280.4L467.0 272.9L462.7 280.4L456.5 280.4L463.0 269.5L456.7 258.6ZM484.9 288.6L478.9 288.6L478.9 258.6L484.8 258.6L484.8 262.3L485.1 262.3Q485.5 261.4 486.3 260.5Q487.0 259.6 488.3 259.0Q489.5 258.3 491.3 258.3L491.3 258.3Q493.7 258.3 495.7 259.6Q497.7 260.8 498.9 263.3Q500.2 265.8 500.2 269.6L500.2 269.6Q500.2 273.2 499.0 275.7Q497.8 278.2 495.8 279.5Q493.8 280.8 491.3 280.8L491.3 280.8Q489.5 280.8 488.3 280.2Q487.1 279.6 486.3 278.7Q485.5 277.9 485.1 276.9L485.1 276.9L484.9 276.9L484.9 288.6ZM484.8 269.5L484.8 269.5Q484.8 271.5 485.3 272.9Q485.9 274.4 486.9 275.2Q487.9 276.0 489.4 276.0L489.4 276.0Q490.9 276.0 491.9 275.2Q492.9 274.3 493.4 272.9Q494.0 271.4 494.0 269.5L494.0 269.5Q494.0 267.6 493.4 266.2Q492.9 264.8 491.9 264.0Q490.9 263.2 489.4 263.2L489.4 263.2Q487.9 263.2 486.9 263.9Q485.9 264.7 485.3 266.2Q484.8 267.6 484.8 269.5ZM502.2 251.3L508.2 251.3L508.2 280.4L502.2 280.4L502.2 251.3ZM520.9 280.9L520.9 280.9Q517.6 280.9 515.2 279.5Q512.8 278.0 511.5 275.5Q510.2 273.0 510.2 269.6L510.2 269.6Q510.2 266.2 511.5 263.7Q512.8 261.2 515.2 259.8Q517.6 258.3 520.9 258.3L520.9 258.3Q524.2 258.3 526.6 259.8Q529.0 261.2 530.3 263.7Q531.6 266.2 531.6 269.6L531.6 269.6Q531.6 273.0 530.3 275.5Q529.0 278.0 526.6 279.5Q524.2 280.9 520.9 280.9ZM520.9 276.2L520.9 276.2Q522.4 276.2 523.5 275.3Q524.5 274.5 525.0 273.0Q525.5 271.5 525.5 269.6L525.5 269.6Q525.5 267.7 525.0 266.2Q524.5 264.7 523.5 263.8Q522.4 263.0 520.9 263.0L520.9 263.0Q519.4 263.0 518.4 263.8Q517.4 264.7 516.8 266.2Q516.3 267.7 516.3 269.6L516.3 269.6Q516.3 271.5 516.8 273.0Q517.4 274.5 518.4 275.3Q519.4 276.2 520.9 276.2ZM539.6 280.4L533.6 280.4L533.6 258.6L539.5 258.6L539.5 262.4L539.7 262.4Q540.3 260.4 541.7 259.4Q543.1 258.3 544.9 258.3L544.9 258.3Q545.4 258.3 545.9 258.4Q546.4 258.4 546.8 258.5L546.8 258.5L546.8 263.9Q546.4 263.8 545.7 263.7Q544.9 263.6 544.3 263.6L544.3 263.6Q542.9 263.6 541.9 264.1Q540.9 264.7 540.3 265.7Q539.6 266.8 539.6 268.1L539.6 268.1L539.6 280.4ZM556.9 280.9L556.9 280.9Q553.5 280.9 551.1 279.5Q548.7 278.1 547.3 275.6Q546.0 273.1 546.0 269.6L546.0 269.6Q546.0 266.3 547.3 263.7Q548.7 261.2 551.0 259.8Q553.4 258.3 556.6 258.3L556.6 258.3Q558.8 258.3 560.7 259.0Q562.5 259.7 563.9 261.1Q565.3 262.5 566.1 264.6Q566.9 266.6 566.9 269.4L566.9 269.4L566.9 271.1L548.5 271.1L548.5 267.3L561.2 267.3Q561.2 266.0 560.6 265.0Q560.0 264.0 559.0 263.4Q558.0 262.9 556.7 262.9L556.7 262.9Q555.3 262.9 554.3 263.5Q553.2 264.1 552.6 265.2Q552.0 266.2 552.0 267.5L552.0 267.5L552.0 271.1Q552.0 272.7 552.6 273.9Q553.2 275.1 554.3 275.7Q555.4 276.3 557.0 276.3L557.0 276.3Q558.0 276.3 558.8 276.1Q559.7 275.8 560.2 275.2Q560.8 274.6 561.2 273.8L561.2 273.8L566.8 274.2Q566.3 276.2 565.0 277.7Q563.7 279.2 561.6 280.0Q559.6 280.9 556.9 280.9Z "/></svg>